<?xml version="1.0" encoding="UTF-8" standalone="no"?>
<!DOCTYPE svg PUBLIC "-//W3C//DTD SVG 1.1//EN"
 "http://www.w3.org/Graphics/SVG/1.1/DTD/svg11.dtd">
<!-- Generated by graphviz version 2.38.0 (20140413.2041)
 -->
<!-- Title: %3 Pages: 1 -->
<svg width="2426pt" height="692pt"
 viewBox="0.00 0.00 2425.50 692.00" xmlns="http://www.w3.org/2000/svg" xmlns:xlink="http://www.w3.org/1999/xlink">
<g id="graph0" class="graph" transform="scale(1 1) rotate(0) translate(4 688)">
<title>%3</title>
<polygon fill="white" stroke="none" points="-4,4 -4,-688 2421.5,-688 2421.5,4 -4,4"/>
<!-- [root] aws_default_subnet.default_az1 -->
<g id="node1" class="node"><title>[root] aws_default_subnet.default_az1</title>
<polygon fill="none" stroke="black" points="1945.5,-180 1750.5,-180 1750.5,-144 1945.5,-144 1945.5,-180"/>
<text text-anchor="middle" x="1848" y="-158.3" font-family="Times New Roman,serif" font-size="14.00">aws_default_subnet.default_az1</text>
</g>
<!-- [root] provider.aws -->
<g id="node24" class="node"><title>[root] provider.aws</title>
<polygon fill="none" stroke="black" points="1741,-108 1659.39,-90 1741,-72 1822.61,-90 1741,-108"/>
<text text-anchor="middle" x="1741" y="-86.3" font-family="Times New Roman,serif" font-size="14.00">provider.aws</text>
</g>
<!-- [root] aws_default_subnet.default_az1&#45;&gt;[root] provider.aws -->
<g id="edge1" class="edge"><title>[root] aws_default_subnet.default_az1&#45;&gt;[root] provider.aws</title>
<path fill="none" stroke="black" d="M1821.82,-143.876C1805.85,-133.426 1785.43,-120.069 1769.12,-109.395"/>
<polygon fill="black" stroke="black" points="1770.81,-106.322 1760.53,-103.776 1766.98,-112.18 1770.81,-106.322"/>
</g>
<!-- [root] aws_default_subnet.default_az2 -->
<g id="node2" class="node"><title>[root] aws_default_subnet.default_az2</title>
<polygon fill="none" stroke="black" points="1519.5,-180 1324.5,-180 1324.5,-144 1519.5,-144 1519.5,-180"/>
<text text-anchor="middle" x="1422" y="-158.3" font-family="Times New Roman,serif" font-size="14.00">aws_default_subnet.default_az2</text>
</g>
<!-- [root] aws_default_subnet.default_az2&#45;&gt;[root] provider.aws -->
<g id="edge2" class="edge"><title>[root] aws_default_subnet.default_az2&#45;&gt;[root] provider.aws</title>
<path fill="none" stroke="black" d="M1499.63,-143.966C1559.8,-130.763 1641.29,-112.88 1692.5,-101.642"/>
<polygon fill="black" stroke="black" points="1693.31,-105.049 1702.33,-99.4867 1691.81,-98.2114 1693.31,-105.049"/>
</g>
<!-- [root] aws_default_subnet.default_az3 -->
<g id="node3" class="node"><title>[root] aws_default_subnet.default_az3</title>
<polygon fill="none" stroke="black" points="1732.5,-180 1537.5,-180 1537.5,-144 1732.5,-144 1732.5,-180"/>
<text text-anchor="middle" x="1635" y="-158.3" font-family="Times New Roman,serif" font-size="14.00">aws_default_subnet.default_az3</text>
</g>
<!-- [root] aws_default_subnet.default_az3&#45;&gt;[root] provider.aws -->
<g id="edge3" class="edge"><title>[root] aws_default_subnet.default_az3&#45;&gt;[root] provider.aws</title>
<path fill="none" stroke="black" d="M1660.93,-143.876C1676.76,-133.426 1696.98,-120.069 1713.14,-109.395"/>
<polygon fill="black" stroke="black" points="1715.24,-112.207 1721.65,-103.776 1711.38,-106.366 1715.24,-112.207"/>
</g>
<!-- [root] aws_default_vpc.vpctest -->
<g id="node4" class="node"><title>[root] aws_default_vpc.vpctest</title>
<polygon fill="none" stroke="black" points="756,-180 600,-180 600,-144 756,-144 756,-180"/>
<text text-anchor="middle" x="678" y="-158.3" font-family="Times New Roman,serif" font-size="14.00">aws_default_vpc.vpctest</text>
</g>
<!-- [root] aws_default_vpc.vpctest&#45;&gt;[root] provider.aws -->
<g id="edge4" class="edge"><title>[root] aws_default_vpc.vpctest&#45;&gt;[root] provider.aws</title>
<path fill="none" stroke="black" d="M756.165,-155.853C955.668,-142.715 1481.35,-108.099 1671.28,-95.5911"/>
<polygon fill="black" stroke="black" points="1671.67,-99.0731 1681.42,-94.9235 1671.21,-92.0882 1671.67,-99.0731"/>
</g>
<!-- [root] aws_instance.Day1singleinstance -->
<g id="node5" class="node"><title>[root] aws_instance.Day1singleinstance</title>
<polygon fill="none" stroke="black" points="1993,-540 1793,-540 1793,-504 1993,-504 1993,-540"/>
<text text-anchor="middle" x="1893" y="-518.3" font-family="Times New Roman,serif" font-size="14.00">aws_instance.Day1singleinstance</text>
</g>
<!-- [root] aws_key_pair.key1 -->
<g id="node6" class="node"><title>[root] aws_key_pair.key1</title>
<polygon fill="none" stroke="black" points="2146,-252 2022,-252 2022,-216 2146,-216 2146,-252"/>
<text text-anchor="middle" x="2084" y="-230.3" font-family="Times New Roman,serif" font-size="14.00">aws_key_pair.key1</text>
</g>
<!-- [root] aws_instance.Day1singleinstance&#45;&gt;[root] aws_key_pair.key1 -->
<g id="edge5" class="edge"><title>[root] aws_instance.Day1singleinstance&#45;&gt;[root] aws_key_pair.key1</title>
<path fill="none" stroke="black" d="M1938.23,-503.986C2002.58,-477.005 2118.09,-417.661 2166,-324 2173.29,-309.756 2173.65,-302.053 2166,-288 2159.09,-275.301 2147.68,-265.181 2135.54,-257.33"/>
<polygon fill="black" stroke="black" points="2137,-254.128 2126.62,-252.011 2133.41,-260.14 2137,-254.128"/>
</g>
<!-- [root] var.customAMI -->
<g id="node30" class="node"><title>[root] var.customAMI</title>
<polygon fill="none" stroke="black" points="1939.5,-468 1840.5,-468 1840.5,-432 1945.5,-432 1945.5,-462 1939.5,-468"/>
<polyline fill="none" stroke="black" points="1939.5,-468 1939.5,-462 "/>
<polyline fill="none" stroke="black" points="1945.5,-462 1939.5,-462 "/>
<text text-anchor="middle" x="1893" y="-446.3" font-family="Times New Roman,serif" font-size="14.00">var.customAMI</text>
</g>
<!-- [root] aws_instance.Day1singleinstance&#45;&gt;[root] var.customAMI -->
<g id="edge6" class="edge"><title>[root] aws_instance.Day1singleinstance&#45;&gt;[root] var.customAMI</title>
<path fill="none" stroke="black" d="M1893,-503.697C1893,-495.983 1893,-486.712 1893,-478.112"/>
<polygon fill="black" stroke="black" points="1896.5,-478.104 1893,-468.104 1889.5,-478.104 1896.5,-478.104"/>
</g>
<!-- [root] aws_key_pair.key1&#45;&gt;[root] provider.aws -->
<g id="edge7" class="edge"><title>[root] aws_key_pair.key1&#45;&gt;[root] provider.aws</title>
<path fill="none" stroke="black" d="M2050.48,-215.77C2032.8,-206.122 2011.09,-193.365 1993,-180 1974.03,-165.981 1974.76,-155.198 1954,-144 1906.86,-118.574 1847.28,-105.091 1803.12,-98.1017"/>
<polygon fill="black" stroke="black" points="1803.51,-94.6206 1793.1,-96.584 1802.46,-101.542 1803.51,-94.6206"/>
</g>
<!-- [root] var.PATH_TO_PUBLIC_KEY -->
<g id="node29" class="node"><title>[root] var.PATH_TO_PUBLIC_KEY</title>
<polygon fill="none" stroke="black" points="2190,-180 2002,-180 2002,-144 2196,-144 2196,-174 2190,-180"/>
<polyline fill="none" stroke="black" points="2190,-180 2190,-174 "/>
<polyline fill="none" stroke="black" points="2196,-174 2190,-174 "/>
<text text-anchor="middle" x="2099" y="-158.3" font-family="Times New Roman,serif" font-size="14.00">var.PATH_TO_PUBLIC_KEY</text>
</g>
<!-- [root] aws_key_pair.key1&#45;&gt;[root] var.PATH_TO_PUBLIC_KEY -->
<g id="edge8" class="edge"><title>[root] aws_key_pair.key1&#45;&gt;[root] var.PATH_TO_PUBLIC_KEY</title>
<path fill="none" stroke="black" d="M2087.71,-215.697C2089.36,-207.983 2091.35,-198.712 2093.19,-190.112"/>
<polygon fill="black" stroke="black" points="2096.66,-190.616 2095.33,-180.104 2089.82,-189.149 2096.66,-190.616"/>
</g>
<!-- [root] module.consul.aws_instance.server -->
<g id="node7" class="node"><title>[root] module.consul.aws_instance.server</title>
<polygon fill="none" stroke="black" points="1574,-396 1360,-396 1360,-360 1574,-360 1574,-396"/>
<text text-anchor="middle" x="1467" y="-374.3" font-family="Times New Roman,serif" font-size="14.00">module.consul.aws_instance.server</text>
</g>
<!-- [root] module.consul.aws_security_group.consul -->
<g id="node8" class="node"><title>[root] module.consul.aws_security_group.consul</title>
<polygon fill="none" stroke="black" points="256,-324 0,-324 0,-288 256,-288 256,-324"/>
<text text-anchor="middle" x="128" y="-302.3" font-family="Times New Roman,serif" font-size="14.00">module.consul.aws_security_group.consul</text>
</g>
<!-- [root] module.consul.aws_instance.server&#45;&gt;[root] module.consul.aws_security_group.consul -->
<g id="edge13" class="edge"><title>[root] module.consul.aws_instance.server&#45;&gt;[root] module.consul.aws_security_group.consul</title>
<path fill="none" stroke="black" d="M1359.88,-375.129C1151.33,-370.86 676.031,-358.068 266.285,-324.068"/>
<polygon fill="black" stroke="black" points="266.571,-320.58 256.314,-323.236 265.988,-327.556 266.571,-320.58"/>
</g>
<!-- [root] module.consul.var.ami -->
<g id="node10" class="node"><title>[root] module.consul.var.ami</title>
<polygon fill="none" stroke="black" points="411.5,-324 274.5,-324 274.5,-288 417.5,-288 417.5,-318 411.5,-324"/>
<polyline fill="none" stroke="black" points="411.5,-324 411.5,-318 "/>
<polyline fill="none" stroke="black" points="417.5,-318 411.5,-318 "/>
<text text-anchor="middle" x="346" y="-302.3" font-family="Times New Roman,serif" font-size="14.00">module.consul.var.ami</text>
</g>
<!-- [root] module.consul.aws_instance.server&#45;&gt;[root] module.consul.var.ami -->
<g id="edge14" class="edge"><title>[root] module.consul.aws_instance.server&#45;&gt;[root] module.consul.var.ami</title>
<path fill="none" stroke="black" d="M1359.83,-377.032C1172.5,-375.879 773.328,-368.043 427.838,-323.976"/>
<polygon fill="black" stroke="black" points="428.254,-320.501 417.889,-322.695 427.361,-327.444 428.254,-320.501"/>
</g>
<!-- [root] module.consul.var.instance_type -->
<g id="node11" class="node"><title>[root] module.consul.var.instance_type</title>
<polygon fill="none" stroke="black" points="630,-324 436,-324 436,-288 636,-288 636,-318 630,-324"/>
<polyline fill="none" stroke="black" points="630,-324 630,-318 "/>
<polyline fill="none" stroke="black" points="636,-318 630,-318 "/>
<text text-anchor="middle" x="536" y="-302.3" font-family="Times New Roman,serif" font-size="14.00">module.consul.var.instance_type</text>
</g>
<!-- [root] module.consul.aws_instance.server&#45;&gt;[root] module.consul.var.instance_type -->
<g id="edge15" class="edge"><title>[root] module.consul.aws_instance.server&#45;&gt;[root] module.consul.var.instance_type</title>
<path fill="none" stroke="black" d="M1360,-373.188C1204.88,-366.972 908.337,-352.497 646.134,-324.065"/>
<polygon fill="black" stroke="black" points="646.358,-320.569 636.037,-322.961 645.597,-327.527 646.358,-320.569"/>
</g>
<!-- [root] module.consul.var.key_name -->
<g id="node12" class="node"><title>[root] module.consul.var.key_name</title>
<polygon fill="none" stroke="black" points="2151.5,-324 1978.5,-324 1978.5,-288 2157.5,-288 2157.5,-318 2151.5,-324"/>
<polyline fill="none" stroke="black" points="2151.5,-324 2151.5,-318 "/>
<polyline fill="none" stroke="black" points="2157.5,-318 2151.5,-318 "/>
<text text-anchor="middle" x="2068" y="-302.3" font-family="Times New Roman,serif" font-size="14.00">module.consul.var.key_name</text>
</g>
<!-- [root] module.consul.aws_instance.server&#45;&gt;[root] module.consul.var.key_name -->
<g id="edge16" class="edge"><title>[root] module.consul.aws_instance.server&#45;&gt;[root] module.consul.var.key_name</title>
<path fill="none" stroke="black" d="M1574.34,-367.298C1675.14,-357.773 1830.06,-342.074 1964,-324 1965.47,-323.801 1966.96,-323.598 1968.45,-323.391"/>
<polygon fill="black" stroke="black" points="1969.01,-326.846 1978.42,-321.969 1968.02,-319.916 1969.01,-326.846"/>
</g>
<!-- [root] module.consul.var.region -->
<g id="node15" class="node"><title>[root] module.consul.var.region</title>
<polygon fill="none" stroke="black" points="2217,-108 2065,-108 2065,-72 2223,-72 2223,-102 2217,-108"/>
<polyline fill="none" stroke="black" points="2217,-108 2217,-102 "/>
<polyline fill="none" stroke="black" points="2223,-102 2217,-102 "/>
<text text-anchor="middle" x="2144" y="-86.3" font-family="Times New Roman,serif" font-size="14.00">module.consul.var.region</text>
</g>
<!-- [root] module.consul.aws_instance.server&#45;&gt;[root] module.consul.var.region -->
<g id="edge17" class="edge"><title>[root] module.consul.aws_instance.server&#45;&gt;[root] module.consul.var.region</title>
<path fill="none" stroke="black" d="M1574.27,-375.581C1758.95,-372.161 2121.51,-360.793 2166,-324 2229.08,-271.833 2238.95,-218.482 2205,-144 2199.77,-132.531 2190.7,-122.584 2181.13,-114.504"/>
<polygon fill="black" stroke="black" points="2183.07,-111.58 2173.04,-108.163 2178.75,-117.088 2183.07,-111.58"/>
</g>
<!-- [root] module.consul.var.servers -->
<g id="node16" class="node"><title>[root] module.consul.var.servers</title>
<polygon fill="none" stroke="black" points="811.5,-324 654.5,-324 654.5,-288 817.5,-288 817.5,-318 811.5,-324"/>
<polyline fill="none" stroke="black" points="811.5,-324 811.5,-318 "/>
<polyline fill="none" stroke="black" points="817.5,-318 811.5,-318 "/>
<text text-anchor="middle" x="736" y="-302.3" font-family="Times New Roman,serif" font-size="14.00">module.consul.var.servers</text>
</g>
<!-- [root] module.consul.aws_instance.server&#45;&gt;[root] module.consul.var.servers -->
<g id="edge18" class="edge"><title>[root] module.consul.aws_instance.server&#45;&gt;[root] module.consul.var.servers</title>
<path fill="none" stroke="black" d="M1359.73,-371.555C1234.31,-364.411 1020.34,-349.814 827.876,-324.184"/>
<polygon fill="black" stroke="black" points="828.235,-320.7 817.858,-322.837 827.302,-327.638 828.235,-320.7"/>
</g>
<!-- [root] module.consul.var.service_conf -->
<g id="node17" class="node"><title>[root] module.consul.var.service_conf</title>
<polygon fill="none" stroke="black" points="1024.5,-324 835.5,-324 835.5,-288 1030.5,-288 1030.5,-318 1024.5,-324"/>
<polyline fill="none" stroke="black" points="1024.5,-324 1024.5,-318 "/>
<polyline fill="none" stroke="black" points="1030.5,-318 1024.5,-318 "/>
<text text-anchor="middle" x="933" y="-302.3" font-family="Times New Roman,serif" font-size="14.00">module.consul.var.service_conf</text>
</g>
<!-- [root] module.consul.aws_instance.server&#45;&gt;[root] module.consul.var.service_conf -->
<g id="edge19" class="edge"><title>[root] module.consul.aws_instance.server&#45;&gt;[root] module.consul.var.service_conf</title>
<path fill="none" stroke="black" d="M1359.82,-364.722C1275.83,-354.86 1155.76,-340.237 1040.7,-324.073"/>
<polygon fill="black" stroke="black" points="1041.05,-320.587 1030.66,-322.656 1040.07,-327.518 1041.05,-320.587"/>
</g>
<!-- [root] module.consul.var.service_conf_dest -->
<g id="node18" class="node"><title>[root] module.consul.var.service_conf_dest</title>
<polygon fill="none" stroke="black" points="1269,-324 1049,-324 1049,-288 1275,-288 1275,-318 1269,-324"/>
<polyline fill="none" stroke="black" points="1269,-324 1269,-318 "/>
<polyline fill="none" stroke="black" points="1275,-318 1269,-318 "/>
<text text-anchor="middle" x="1162" y="-302.3" font-family="Times New Roman,serif" font-size="14.00">module.consul.var.service_conf_dest</text>
</g>
<!-- [root] module.consul.aws_instance.server&#45;&gt;[root] module.consul.var.service_conf_dest -->
<g id="edge20" class="edge"><title>[root] module.consul.aws_instance.server&#45;&gt;[root] module.consul.var.service_conf_dest</title>
<path fill="none" stroke="black" d="M1392.78,-359.966C1348.51,-349.805 1292.16,-336.872 1246.22,-326.33"/>
<polygon fill="black" stroke="black" points="1246.82,-322.876 1236.29,-324.05 1245.25,-329.698 1246.82,-322.876"/>
</g>
<!-- [root] module.consul.var.subnets -->
<g id="node19" class="node"><title>[root] module.consul.var.subnets</title>
<polygon fill="none" stroke="black" points="1818,-252 1658,-252 1658,-216 1824,-216 1824,-246 1818,-252"/>
<polyline fill="none" stroke="black" points="1818,-252 1818,-246 "/>
<polyline fill="none" stroke="black" points="1824,-246 1818,-246 "/>
<text text-anchor="middle" x="1741" y="-230.3" font-family="Times New Roman,serif" font-size="14.00">module.consul.var.subnets</text>
</g>
<!-- [root] module.consul.aws_instance.server&#45;&gt;[root] module.consul.var.subnets -->
<g id="edge21" class="edge"><title>[root] module.consul.aws_instance.server&#45;&gt;[root] module.consul.var.subnets</title>
<path fill="none" stroke="black" d="M1574.05,-372.165C1703.67,-365.192 1907.64,-350.184 1931,-324 1966.7,-283.994 1898.53,-260.57 1834.14,-247.885"/>
<polygon fill="black" stroke="black" points="1834.74,-244.437 1824.26,-246.016 1833.44,-251.315 1834.74,-244.437"/>
</g>
<!-- [root] module.consul.var.tagName -->
<g id="node20" class="node"><title>[root] module.consul.var.tagName</title>
<polygon fill="none" stroke="black" points="1459,-324 1293,-324 1293,-288 1465,-288 1465,-318 1459,-324"/>
<polyline fill="none" stroke="black" points="1459,-324 1459,-318 "/>
<polyline fill="none" stroke="black" points="1465,-318 1459,-318 "/>
<text text-anchor="middle" x="1379" y="-302.3" font-family="Times New Roman,serif" font-size="14.00">module.consul.var.tagName</text>
</g>
<!-- [root] module.consul.aws_instance.server&#45;&gt;[root] module.consul.var.tagName -->
<g id="edge22" class="edge"><title>[root] module.consul.aws_instance.server&#45;&gt;[root] module.consul.var.tagName</title>
<path fill="none" stroke="black" d="M1445.25,-359.697C1434.16,-350.881 1420.53,-340.032 1408.51,-330.474"/>
<polygon fill="black" stroke="black" points="1410.51,-327.59 1400.5,-324.104 1406.15,-333.069 1410.51,-327.59"/>
</g>
<!-- [root] provisioner.file -->
<g id="node32" class="node"><title>[root] provisioner.file</title>
<ellipse fill="none" stroke="black" cx="1571" cy="-306" rx="88.2844" ry="18"/>
<text text-anchor="middle" x="1571" y="-302.3" font-family="Times New Roman,serif" font-size="14.00">[root] provisioner.file</text>
</g>
<!-- [root] module.consul.aws_instance.server&#45;&gt;[root] provisioner.file -->
<g id="edge23" class="edge"><title>[root] module.consul.aws_instance.server&#45;&gt;[root] provisioner.file</title>
<path fill="none" stroke="black" d="M1492.44,-359.876C1506.21,-350.605 1523.39,-339.047 1538.16,-329.104"/>
<polygon fill="black" stroke="black" points="1540.2,-331.952 1546.54,-323.465 1536.29,-326.145 1540.2,-331.952"/>
</g>
<!-- [root] provisioner.remote&#45;exec -->
<g id="node33" class="node"><title>[root] provisioner.remote&#45;exec</title>
<ellipse fill="none" stroke="black" cx="1800" cy="-306" rx="122.379" ry="18"/>
<text text-anchor="middle" x="1800" y="-302.3" font-family="Times New Roman,serif" font-size="14.00">[root] provisioner.remote&#45;exec</text>
</g>
<!-- [root] module.consul.aws_instance.server&#45;&gt;[root] provisioner.remote&#45;exec -->
<g id="edge24" class="edge"><title>[root] module.consul.aws_instance.server&#45;&gt;[root] provisioner.remote&#45;exec</title>
<path fill="none" stroke="black" d="M1548.04,-359.966C1601.3,-348.769 1670.57,-334.207 1723,-323.186"/>
<polygon fill="black" stroke="black" points="1723.85,-326.584 1732.92,-321.101 1722.41,-319.734 1723.85,-326.584"/>
</g>
<!-- [root] module.consul.var.platform -->
<g id="node14" class="node"><title>[root] module.consul.var.platform</title>
<polygon fill="none" stroke="black" points="391,-252 227,-252 227,-216 397,-216 397,-246 391,-252"/>
<polyline fill="none" stroke="black" points="391,-252 391,-246 "/>
<polyline fill="none" stroke="black" points="397,-246 391,-246 "/>
<text text-anchor="middle" x="312" y="-230.3" font-family="Times New Roman,serif" font-size="14.00">module.consul.var.platform</text>
</g>
<!-- [root] module.consul.aws_security_group.consul&#45;&gt;[root] module.consul.var.platform -->
<g id="edge25" class="edge"><title>[root] module.consul.aws_security_group.consul&#45;&gt;[root] module.consul.var.platform</title>
<path fill="none" stroke="black" d="M173.011,-287.876C198.501,-278.179 230.568,-265.98 257.476,-255.743"/>
<polygon fill="black" stroke="black" points="259.033,-258.895 267.135,-252.068 256.544,-252.353 259.033,-258.895"/>
</g>
<!-- [root] module.consul.var.vpc_id -->
<g id="node22" class="node"><title>[root] module.consul.var.vpc_id</title>
<polygon fill="none" stroke="black" points="203,-252 47,-252 47,-216 209,-216 209,-246 203,-252"/>
<polyline fill="none" stroke="black" points="203,-252 203,-246 "/>
<polyline fill="none" stroke="black" points="209,-246 203,-246 "/>
<text text-anchor="middle" x="128" y="-230.3" font-family="Times New Roman,serif" font-size="14.00">module.consul.var.vpc_id</text>
</g>
<!-- [root] module.consul.aws_security_group.consul&#45;&gt;[root] module.consul.var.vpc_id -->
<g id="edge26" class="edge"><title>[root] module.consul.aws_security_group.consul&#45;&gt;[root] module.consul.var.vpc_id</title>
<path fill="none" stroke="black" d="M128,-287.697C128,-279.983 128,-270.712 128,-262.112"/>
<polygon fill="black" stroke="black" points="131.5,-262.104 128,-252.104 124.5,-262.104 131.5,-262.104"/>
</g>
<!-- [root] module.consul.output.server_address -->
<g id="node9" class="node"><title>[root] module.consul.output.server_address</title>
<polygon fill="none" stroke="black" points="1794.5,-468 1573.5,-468 1573.5,-432 1800.5,-432 1800.5,-462 1794.5,-468"/>
<polyline fill="none" stroke="black" points="1794.5,-468 1794.5,-462 "/>
<polyline fill="none" stroke="black" points="1800.5,-462 1794.5,-462 "/>
<text text-anchor="middle" x="1687" y="-446.3" font-family="Times New Roman,serif" font-size="14.00">module.consul.output.server_address</text>
</g>
<!-- [root] module.consul.output.server_address&#45;&gt;[root] module.consul.aws_instance.server -->
<g id="edge27" class="edge"><title>[root] module.consul.output.server_address&#45;&gt;[root] module.consul.aws_instance.server</title>
<path fill="none" stroke="black" d="M1633.46,-431.966C1602.46,-422.1 1563.24,-409.622 1530.66,-399.255"/>
<polygon fill="black" stroke="black" points="1531.37,-395.808 1520.78,-396.111 1529.24,-402.478 1531.37,-395.808"/>
</g>
<!-- [root] module.consul.var.key_name&#45;&gt;[root] aws_key_pair.key1 -->
<g id="edge28" class="edge"><title>[root] module.consul.var.key_name&#45;&gt;[root] aws_key_pair.key1</title>
<path fill="none" stroke="black" d="M2071.96,-287.697C2073.72,-279.983 2075.84,-270.712 2077.8,-262.112"/>
<polygon fill="black" stroke="black" points="2081.27,-262.633 2080.09,-252.104 2074.45,-261.073 2081.27,-262.633"/>
</g>
<!-- [root] module.consul.var.key_path -->
<g id="node13" class="node"><title>[root] module.consul.var.key_path</title>
<polygon fill="none" stroke="black" points="2361,-540 2193,-540 2193,-504 2367,-504 2367,-534 2361,-540"/>
<polyline fill="none" stroke="black" points="2361,-540 2361,-534 "/>
<polyline fill="none" stroke="black" points="2367,-534 2361,-534 "/>
<text text-anchor="middle" x="2280" y="-518.3" font-family="Times New Roman,serif" font-size="14.00">module.consul.var.key_path</text>
</g>
<!-- [root] var.PATH_TO_PRIVATE_KEY -->
<g id="node28" class="node"><title>[root] var.PATH_TO_PRIVATE_KEY</title>
<polygon fill="none" stroke="black" points="2411.5,-468 2214.5,-468 2214.5,-432 2417.5,-432 2417.5,-462 2411.5,-468"/>
<polyline fill="none" stroke="black" points="2411.5,-468 2411.5,-462 "/>
<polyline fill="none" stroke="black" points="2417.5,-462 2411.5,-462 "/>
<text text-anchor="middle" x="2316" y="-446.3" font-family="Times New Roman,serif" font-size="14.00">var.PATH_TO_PRIVATE_KEY</text>
</g>
<!-- [root] module.consul.var.key_path&#45;&gt;[root] var.PATH_TO_PRIVATE_KEY -->
<g id="edge29" class="edge"><title>[root] module.consul.var.key_path&#45;&gt;[root] var.PATH_TO_PRIVATE_KEY</title>
<path fill="none" stroke="black" d="M2288.9,-503.697C2293,-495.728 2297.95,-486.1 2302.49,-477.264"/>
<polygon fill="black" stroke="black" points="2305.74,-478.598 2307.2,-468.104 2299.52,-475.396 2305.74,-478.598"/>
</g>
<!-- [root] var.AWS_REGION -->
<g id="node26" class="node"><title>[root] var.AWS_REGION</title>
<polygon fill="none" stroke="black" points="2137,-36 2013,-36 2013,-0 2143,-0 2143,-30 2137,-36"/>
<polyline fill="none" stroke="black" points="2137,-36 2137,-30 "/>
<polyline fill="none" stroke="black" points="2143,-30 2137,-30 "/>
<text text-anchor="middle" x="2078" y="-14.3" font-family="Times New Roman,serif" font-size="14.00">var.AWS_REGION</text>
</g>
<!-- [root] module.consul.var.region&#45;&gt;[root] var.AWS_REGION -->
<g id="edge30" class="edge"><title>[root] module.consul.var.region&#45;&gt;[root] var.AWS_REGION</title>
<path fill="none" stroke="black" d="M2127.69,-71.6966C2119.69,-63.2198 2109.93,-52.8636 2101.18,-43.5826"/>
<polygon fill="black" stroke="black" points="2103.53,-40.9792 2094.13,-36.1043 2098.44,-45.7813 2103.53,-40.9792"/>
</g>
<!-- [root] module.consul.var.subnets&#45;&gt;[root] aws_default_subnet.default_az1 -->
<g id="edge31" class="edge"><title>[root] module.consul.var.subnets&#45;&gt;[root] aws_default_subnet.default_az1</title>
<path fill="none" stroke="black" d="M1767.18,-215.876C1781.04,-206.808 1798.24,-195.552 1813.21,-185.759"/>
<polygon fill="black" stroke="black" points="1815.27,-188.593 1821.72,-180.19 1811.44,-182.735 1815.27,-188.593"/>
</g>
<!-- [root] module.consul.var.subnets&#45;&gt;[root] aws_default_subnet.default_az2 -->
<g id="edge32" class="edge"><title>[root] module.consul.var.subnets&#45;&gt;[root] aws_default_subnet.default_az2</title>
<path fill="none" stroke="black" d="M1663.37,-215.966C1616.87,-205.762 1557.64,-192.764 1509.49,-182.198"/>
<polygon fill="black" stroke="black" points="1510.22,-178.775 1499.7,-180.05 1508.72,-185.612 1510.22,-178.775"/>
</g>
<!-- [root] module.consul.var.subnets&#45;&gt;[root] aws_default_subnet.default_az3 -->
<g id="edge33" class="edge"><title>[root] module.consul.var.subnets&#45;&gt;[root] aws_default_subnet.default_az3</title>
<path fill="none" stroke="black" d="M1715.07,-215.876C1701.34,-206.808 1684.29,-195.552 1669.46,-185.759"/>
<polygon fill="black" stroke="black" points="1671.3,-182.78 1661.03,-180.19 1667.45,-188.621 1671.3,-182.78"/>
</g>
<!-- [root] module.consul.var.user -->
<g id="node21" class="node"><title>[root] module.consul.var.user</title>
<polygon fill="none" stroke="black" points="2151,-540 2011,-540 2011,-504 2157,-504 2157,-534 2151,-540"/>
<polyline fill="none" stroke="black" points="2151,-540 2151,-534 "/>
<polyline fill="none" stroke="black" points="2157,-534 2151,-534 "/>
<text text-anchor="middle" x="2084" y="-518.3" font-family="Times New Roman,serif" font-size="14.00">module.consul.var.user</text>
</g>
<!-- [root] module.consul.var.vpc_id&#45;&gt;[root] aws_default_vpc.vpctest -->
<g id="edge34" class="edge"><title>[root] module.consul.var.vpc_id&#45;&gt;[root] aws_default_vpc.vpctest</title>
<path fill="none" stroke="black" d="M209.39,-217.355C212.293,-216.883 215.17,-216.43 218,-216 346.699,-196.457 496.632,-180.432 589.443,-171.293"/>
<polygon fill="black" stroke="black" points="590.025,-174.753 599.636,-170.295 589.342,-167.787 590.025,-174.753"/>
</g>
<!-- [root] output.consul&#45;output -->
<g id="node23" class="node"><title>[root] output.consul&#45;output</title>
<polygon fill="none" stroke="black" points="1758,-540 1630,-540 1630,-504 1764,-504 1764,-534 1758,-540"/>
<polyline fill="none" stroke="black" points="1758,-540 1758,-534 "/>
<polyline fill="none" stroke="black" points="1764,-534 1758,-534 "/>
<text text-anchor="middle" x="1697" y="-518.3" font-family="Times New Roman,serif" font-size="14.00">output.consul&#45;output</text>
</g>
<!-- [root] output.consul&#45;output&#45;&gt;[root] module.consul.output.server_address -->
<g id="edge35" class="edge"><title>[root] output.consul&#45;output&#45;&gt;[root] module.consul.output.server_address</title>
<path fill="none" stroke="black" d="M1694.53,-503.697C1693.43,-495.983 1692.1,-486.712 1690.87,-478.112"/>
<polygon fill="black" stroke="black" points="1694.32,-477.509 1689.44,-468.104 1687.39,-478.499 1694.32,-477.509"/>
</g>
<!-- [root] var.AWS_ACCESS_KEY -->
<g id="node25" class="node"><title>[root] var.AWS_ACCESS_KEY</title>
<polygon fill="none" stroke="black" points="1910,-36 1750,-36 1750,-0 1916,-0 1916,-30 1910,-36"/>
<polyline fill="none" stroke="black" points="1910,-36 1910,-30 "/>
<polyline fill="none" stroke="black" points="1916,-30 1910,-30 "/>
<text text-anchor="middle" x="1833" y="-14.3" font-family="Times New Roman,serif" font-size="14.00">var.AWS_ACCESS_KEY</text>
</g>
<!-- [root] provider.aws&#45;&gt;[root] var.AWS_ACCESS_KEY -->
<g id="edge38" class="edge"><title>[root] provider.aws&#45;&gt;[root] var.AWS_ACCESS_KEY</title>
<path fill="none" stroke="black" d="M1758.74,-75.5033C1771.05,-66.1378 1787.76,-53.4186 1802.22,-42.4191"/>
<polygon fill="black" stroke="black" points="1804.58,-45.0206 1810.42,-36.1799 1800.34,-39.4498 1804.58,-45.0206"/>
</g>
<!-- [root] provider.aws&#45;&gt;[root] var.AWS_REGION -->
<g id="edge39" class="edge"><title>[root] provider.aws&#45;&gt;[root] var.AWS_REGION</title>
<path fill="none" stroke="black" d="M1780.98,-80.6952C1835.57,-69.3561 1934.47,-48.8135 2003.07,-34.5642"/>
<polygon fill="black" stroke="black" points="2003.88,-37.97 2012.96,-32.5093 2002.46,-31.1163 2003.88,-37.97"/>
</g>
<!-- [root] var.AWS_SECRET_KEY -->
<g id="node27" class="node"><title>[root] var.AWS_SECRET_KEY</title>
<polygon fill="none" stroke="black" points="1725.5,-36 1566.5,-36 1566.5,-0 1731.5,-0 1731.5,-30 1725.5,-36"/>
<polyline fill="none" stroke="black" points="1725.5,-36 1725.5,-30 "/>
<polyline fill="none" stroke="black" points="1731.5,-30 1725.5,-30 "/>
<text text-anchor="middle" x="1649" y="-14.3" font-family="Times New Roman,serif" font-size="14.00">var.AWS_SECRET_KEY</text>
</g>
<!-- [root] provider.aws&#45;&gt;[root] var.AWS_SECRET_KEY -->
<g id="edge40" class="edge"><title>[root] provider.aws&#45;&gt;[root] var.AWS_SECRET_KEY</title>
<path fill="none" stroke="black" d="M1723.26,-75.5033C1710.95,-66.1378 1694.24,-53.4186 1679.78,-42.4191"/>
<polygon fill="black" stroke="black" points="1681.66,-39.4498 1671.58,-36.1799 1677.42,-45.0206 1681.66,-39.4498"/>
</g>
<!-- [root] meta.count&#45;boundary (EachMode fixup) -->
<g id="node31" class="node"><title>[root] meta.count&#45;boundary (EachMode fixup)</title>
<ellipse fill="none" stroke="black" cx="2075" cy="-594" rx="180.868" ry="18"/>
<text text-anchor="middle" x="2075" y="-590.3" font-family="Times New Roman,serif" font-size="14.00">[root] meta.count&#45;boundary (EachMode fixup)</text>
</g>
<!-- [root] meta.count&#45;boundary (EachMode fixup)&#45;&gt;[root] aws_instance.Day1singleinstance -->
<g id="edge9" class="edge"><title>[root] meta.count&#45;boundary (EachMode fixup)&#45;&gt;[root] aws_instance.Day1singleinstance</title>
<path fill="none" stroke="black" d="M2031.87,-576.411C2006.39,-566.61 1973.9,-554.117 1946.76,-543.677"/>
<polygon fill="black" stroke="black" points="1947.99,-540.402 1937.4,-540.078 1945.48,-546.935 1947.99,-540.402"/>
</g>
<!-- [root] meta.count&#45;boundary (EachMode fixup)&#45;&gt;[root] module.consul.var.key_path -->
<g id="edge10" class="edge"><title>[root] meta.count&#45;boundary (EachMode fixup)&#45;&gt;[root] module.consul.var.key_path</title>
<path fill="none" stroke="black" d="M2123.06,-576.588C2152.11,-566.67 2189.37,-553.946 2220.3,-543.386"/>
<polygon fill="black" stroke="black" points="2221.76,-546.584 2230.1,-540.04 2219.5,-539.959 2221.76,-546.584"/>
</g>
<!-- [root] meta.count&#45;boundary (EachMode fixup)&#45;&gt;[root] module.consul.var.user -->
<g id="edge11" class="edge"><title>[root] meta.count&#45;boundary (EachMode fixup)&#45;&gt;[root] module.consul.var.user</title>
<path fill="none" stroke="black" d="M2077.22,-575.697C2078.22,-567.983 2079.41,-558.712 2080.51,-550.112"/>
<polygon fill="black" stroke="black" points="2084,-550.469 2081.8,-540.104 2077.05,-549.576 2084,-550.469"/>
</g>
<!-- [root] meta.count&#45;boundary (EachMode fixup)&#45;&gt;[root] output.consul&#45;output -->
<g id="edge12" class="edge"><title>[root] meta.count&#45;boundary (EachMode fixup)&#45;&gt;[root] output.consul&#45;output</title>
<path fill="none" stroke="black" d="M1991.22,-578.034C1933.04,-567.571 1853.76,-553.168 1784,-540 1780.82,-539.401 1777.58,-538.785 1774.31,-538.16"/>
<polygon fill="black" stroke="black" points="1774.91,-534.711 1764.43,-536.264 1773.59,-541.586 1774.91,-534.711"/>
</g>
<!-- [root] provider.aws (close) -->
<g id="node34" class="node"><title>[root] provider.aws (close)</title>
<ellipse fill="none" stroke="black" cx="1768" cy="-594" rx="108.581" ry="18"/>
<text text-anchor="middle" x="1768" y="-590.3" font-family="Times New Roman,serif" font-size="14.00">[root] provider.aws (close)</text>
</g>
<!-- [root] provider.aws (close)&#45;&gt;[root] aws_instance.Day1singleinstance -->
<g id="edge36" class="edge"><title>[root] provider.aws (close)&#45;&gt;[root] aws_instance.Day1singleinstance</title>
<path fill="none" stroke="black" d="M1797.31,-576.588C1814.02,-567.228 1835.2,-555.37 1853.38,-545.189"/>
<polygon fill="black" stroke="black" points="1855.56,-547.98 1862.57,-540.04 1852.14,-541.872 1855.56,-547.98"/>
</g>
<!-- [root] provider.aws (close)&#45;&gt;[root] module.consul.aws_instance.server -->
<g id="edge37" class="edge"><title>[root] provider.aws (close)&#45;&gt;[root] module.consul.aws_instance.server</title>
<path fill="none" stroke="black" d="M1709.65,-578.729C1681.44,-570.19 1647.95,-557.532 1621,-540 1563.32,-502.468 1511.43,-439.338 1485.14,-404.32"/>
<polygon fill="black" stroke="black" points="1487.78,-402.01 1479.02,-396.056 1482.16,-406.175 1487.78,-402.01"/>
</g>
<!-- [root] provisioner.file (close) -->
<g id="node35" class="node"><title>[root] provisioner.file (close)</title>
<ellipse fill="none" stroke="black" cx="1323" cy="-450" rx="115.88" ry="18"/>
<text text-anchor="middle" x="1323" y="-446.3" font-family="Times New Roman,serif" font-size="14.00">[root] provisioner.file (close)</text>
</g>
<!-- [root] provisioner.file (close)&#45;&gt;[root] module.consul.aws_instance.server -->
<g id="edge41" class="edge"><title>[root] provisioner.file (close)&#45;&gt;[root] module.consul.aws_instance.server</title>
<path fill="none" stroke="black" d="M1356.4,-432.765C1376.16,-423.16 1401.42,-410.879 1422.81,-400.479"/>
<polygon fill="black" stroke="black" points="1424.56,-403.521 1432.03,-396.001 1421.5,-397.225 1424.56,-403.521"/>
</g>
<!-- [root] provisioner.remote&#45;exec (close) -->
<g id="node36" class="node"><title>[root] provisioner.remote&#45;exec (close)</title>
<ellipse fill="none" stroke="black" cx="1492" cy="-594" rx="149.473" ry="18"/>
<text text-anchor="middle" x="1492" y="-590.3" font-family="Times New Roman,serif" font-size="14.00">[root] provisioner.remote&#45;exec (close)</text>
</g>
<!-- [root] provisioner.remote&#45;exec (close)&#45;&gt;[root] module.consul.aws_instance.server -->
<g id="edge42" class="edge"><title>[root] provisioner.remote&#45;exec (close)&#45;&gt;[root] module.consul.aws_instance.server</title>
<path fill="none" stroke="black" d="M1490,-575.849C1485.67,-538.832 1475.43,-451.181 1470.2,-406.386"/>
<polygon fill="black" stroke="black" points="1473.65,-405.759 1469.01,-396.232 1466.7,-406.571 1473.65,-405.759"/>
</g>
<!-- [root] root -->
<g id="node37" class="node"><title>[root] root</title>
<ellipse fill="none" stroke="black" cx="1630" cy="-666" rx="49.2915" ry="18"/>
<text text-anchor="middle" x="1630" y="-662.3" font-family="Times New Roman,serif" font-size="14.00">[root] root</text>
</g>
<!-- [root] root&#45;&gt;[root] meta.count&#45;boundary (EachMode fixup) -->
<g id="edge43" class="edge"><title>[root] root&#45;&gt;[root] meta.count&#45;boundary (EachMode fixup)</title>
<path fill="none" stroke="black" d="M1674.3,-658.032C1743.34,-647.172 1878.44,-625.919 1972.59,-611.109"/>
<polygon fill="black" stroke="black" points="1973.38,-614.528 1982.72,-609.517 1972.29,-607.613 1973.38,-614.528"/>
</g>
<!-- [root] root&#45;&gt;[root] provider.aws (close) -->
<g id="edge44" class="edge"><title>[root] root&#45;&gt;[root] provider.aws (close)</title>
<path fill="none" stroke="black" d="M1657.59,-651.003C1677.37,-640.974 1704.34,-627.294 1726.67,-615.965"/>
<polygon fill="black" stroke="black" points="1728.27,-619.077 1735.61,-611.432 1725.1,-612.834 1728.27,-619.077"/>
</g>
<!-- [root] root&#45;&gt;[root] provisioner.file (close) -->
<g id="edge45" class="edge"><title>[root] root&#45;&gt;[root] provisioner.file (close)</title>
<path fill="none" stroke="black" d="M1581.15,-663.298C1505.7,-659.559 1366.15,-647.858 1334,-612 1301.29,-575.514 1308.14,-513.73 1315.76,-478.248"/>
<polygon fill="black" stroke="black" points="1319.26,-478.67 1318.11,-468.138 1312.44,-477.087 1319.26,-478.67"/>
</g>
<!-- [root] root&#45;&gt;[root] provisioner.remote&#45;exec (close) -->
<g id="edge46" class="edge"><title>[root] root&#45;&gt;[root] provisioner.remote&#45;exec (close)</title>
<path fill="none" stroke="black" d="M1602.41,-651.003C1582.86,-641.088 1556.28,-627.605 1534.1,-616.353"/>
<polygon fill="black" stroke="black" points="1535.39,-613.087 1524.89,-611.685 1532.23,-619.33 1535.39,-613.087"/>
</g>
</g>
</svg>
