<?xml version="1.0" encoding="UTF-8" standalone="no"?>
<!DOCTYPE svg PUBLIC "-//W3C//DTD SVG 1.1//EN"
 "http://www.w3.org/Graphics/SVG/1.1/DTD/svg11.dtd">
<!-- Generated by graphviz version 2.38.0 (20140413.2041)
 -->
<!-- Title: %3 Pages: 1 -->
<svg width="604pt" height="404pt"
 viewBox="0.00 0.00 604.22 404.00" xmlns="http://www.w3.org/2000/svg" xmlns:xlink="http://www.w3.org/1999/xlink">
<g id="graph0" class="graph" transform="scale(1 1) rotate(0) translate(4 400)">
<title>%3</title>
<polygon fill="white" stroke="none" points="-4,4 -4,-400 600.224,-400 600.224,4 -4,4"/>
<!-- [root] aws_instance.Day1singleinstance -->
<g id="node1" class="node"><title>[root] aws_instance.Day1singleinstance</title>
<polygon fill="none" stroke="black" points="557.684,-252 357.684,-252 357.684,-216 557.684,-216 557.684,-252"/>
<text text-anchor="middle" x="457.684" y="-230.3" font-family="Times New Roman,serif" font-size="14.00">aws_instance.Day1singleinstance</text>
</g>
<!-- [root] aws_security_group.from_asia -->
<g id="node2" class="node"><title>[root] aws_security_group.from_asia</title>
<polygon fill="none" stroke="black" points="428.184,-180 239.184,-180 239.184,-144 428.184,-144 428.184,-180"/>
<text text-anchor="middle" x="333.684" y="-158.3" font-family="Times New Roman,serif" font-size="14.00">aws_security_group.from_asia</text>
</g>
<!-- [root] aws_instance.Day1singleinstance&#45;&gt;[root] aws_security_group.from_asia -->
<g id="edge1" class="edge"><title>[root] aws_instance.Day1singleinstance&#45;&gt;[root] aws_security_group.from_asia</title>
<path fill="none" stroke="black" d="M427.35,-215.876C410.987,-206.639 390.601,-195.131 373.03,-185.212"/>
<polygon fill="black" stroke="black" points="374.563,-182.058 364.134,-180.19 371.122,-188.154 374.563,-182.058"/>
</g>
<!-- [root] var.customAMI -->
<g id="node8" class="node"><title>[root] var.customAMI</title>
<polygon fill="none" stroke="black" points="545.184,-180 446.184,-180 446.184,-144 551.184,-144 551.184,-174 545.184,-180"/>
<polyline fill="none" stroke="black" points="545.184,-180 545.184,-174 "/>
<polyline fill="none" stroke="black" points="551.184,-174 545.184,-174 "/>
<text text-anchor="middle" x="498.684" y="-158.3" font-family="Times New Roman,serif" font-size="14.00">var.customAMI</text>
</g>
<!-- [root] aws_instance.Day1singleinstance&#45;&gt;[root] var.customAMI -->
<g id="edge2" class="edge"><title>[root] aws_instance.Day1singleinstance&#45;&gt;[root] var.customAMI</title>
<path fill="none" stroke="black" d="M467.819,-215.697C472.536,-207.644 478.246,-197.894 483.466,-188.982"/>
<polygon fill="black" stroke="black" points="486.632,-190.502 488.666,-180.104 480.592,-186.964 486.632,-190.502"/>
</g>
<!-- [root] provider.aws -->
<g id="node4" class="node"><title>[root] provider.aws</title>
<polygon fill="none" stroke="black" points="271.684,-108 190.074,-90 271.684,-72 353.294,-90 271.684,-108"/>
<text text-anchor="middle" x="271.684" y="-86.3" font-family="Times New Roman,serif" font-size="14.00">provider.aws</text>
</g>
<!-- [root] aws_security_group.from_asia&#45;&gt;[root] provider.aws -->
<g id="edge3" class="edge"><title>[root] aws_security_group.from_asia&#45;&gt;[root] provider.aws</title>
<path fill="none" stroke="black" d="M318.358,-143.697C310.096,-134.368 299.818,-122.764 291.011,-112.821"/>
<polygon fill="black" stroke="black" points="293.582,-110.444 284.331,-105.279 288.341,-115.086 293.582,-110.444"/>
</g>
<!-- [root] data.aws_ip_ranges.asia&#45;ec2 -->
<g id="node3" class="node"><title>[root] data.aws_ip_ranges.asia&#45;ec2</title>
<polygon fill="none" stroke="black" points="298.684,-252 122.684,-252 122.684,-216 298.684,-216 298.684,-252"/>
<text text-anchor="middle" x="210.684" y="-230.3" font-family="Times New Roman,serif" font-size="14.00">data.aws_ip_ranges.asia&#45;ec2</text>
</g>
<!-- [root] data.aws_ip_ranges.asia&#45;ec2&#45;&gt;[root] provider.aws -->
<g id="edge4" class="edge"><title>[root] data.aws_ip_ranges.asia&#45;ec2&#45;&gt;[root] provider.aws</title>
<path fill="none" stroke="black" d="M212.004,-215.861C213.95,-197.374 218.642,-167.441 229.684,-144 234.97,-132.778 243.047,-121.792 250.711,-112.757"/>
<polygon fill="black" stroke="black" points="253.522,-114.862 257.541,-105.059 248.286,-110.216 253.522,-114.862"/>
</g>
<!-- [root] var.AWS_ACCESS_KEY -->
<g id="node5" class="node"><title>[root] var.AWS_ACCESS_KEY</title>
<polygon fill="none" stroke="black" points="182.684,-36 22.684,-36 22.684,-0 188.684,-0 188.684,-30 182.684,-36"/>
<polyline fill="none" stroke="black" points="182.684,-36 182.684,-30 "/>
<polyline fill="none" stroke="black" points="188.684,-30 182.684,-30 "/>
<text text-anchor="middle" x="105.684" y="-14.3" font-family="Times New Roman,serif" font-size="14.00">var.AWS_ACCESS_KEY</text>
</g>
<!-- [root] provider.aws&#45;&gt;[root] var.AWS_ACCESS_KEY -->
<g id="edge9" class="edge"><title>[root] provider.aws&#45;&gt;[root] var.AWS_ACCESS_KEY</title>
<path fill="none" stroke="black" d="M245.013,-77.7533C220.948,-67.6052 184.92,-52.4128 155.53,-40.0192"/>
<polygon fill="black" stroke="black" points="156.818,-36.7642 146.244,-36.1036 154.098,-43.2142 156.818,-36.7642"/>
</g>
<!-- [root] var.AWS_REGION -->
<g id="node6" class="node"><title>[root] var.AWS_REGION</title>
<polygon fill="none" stroke="black" points="330.684,-36 206.684,-36 206.684,-0 336.684,-0 336.684,-30 330.684,-36"/>
<polyline fill="none" stroke="black" points="330.684,-36 330.684,-30 "/>
<polyline fill="none" stroke="black" points="336.684,-30 330.684,-30 "/>
<text text-anchor="middle" x="271.684" y="-14.3" font-family="Times New Roman,serif" font-size="14.00">var.AWS_REGION</text>
</g>
<!-- [root] provider.aws&#45;&gt;[root] var.AWS_REGION -->
<g id="edge10" class="edge"><title>[root] provider.aws&#45;&gt;[root] var.AWS_REGION</title>
<path fill="none" stroke="black" d="M271.684,-71.6966C271.684,-63.9827 271.684,-54.7125 271.684,-46.1124"/>
<polygon fill="black" stroke="black" points="275.184,-46.1043 271.684,-36.1043 268.184,-46.1044 275.184,-46.1043"/>
</g>
<!-- [root] var.AWS_SECRET_KEY -->
<g id="node7" class="node"><title>[root] var.AWS_SECRET_KEY</title>
<polygon fill="none" stroke="black" points="514.184,-36 355.184,-36 355.184,-0 520.184,-0 520.184,-30 514.184,-36"/>
<polyline fill="none" stroke="black" points="514.184,-36 514.184,-30 "/>
<polyline fill="none" stroke="black" points="520.184,-30 514.184,-30 "/>
<text text-anchor="middle" x="437.684" y="-14.3" font-family="Times New Roman,serif" font-size="14.00">var.AWS_SECRET_KEY</text>
</g>
<!-- [root] provider.aws&#45;&gt;[root] var.AWS_SECRET_KEY -->
<g id="edge11" class="edge"><title>[root] provider.aws&#45;&gt;[root] var.AWS_SECRET_KEY</title>
<path fill="none" stroke="black" d="M298.355,-77.7533C322.42,-67.6052 358.448,-52.4128 387.838,-40.0192"/>
<polygon fill="black" stroke="black" points="389.27,-43.2142 397.124,-36.1036 386.55,-36.7642 389.27,-43.2142"/>
</g>
<!-- [root] meta.count&#45;boundary (EachMode fixup) -->
<g id="node9" class="node"><title>[root] meta.count&#45;boundary (EachMode fixup)</title>
<ellipse fill="none" stroke="black" cx="180.684" cy="-306" rx="180.868" ry="18"/>
<text text-anchor="middle" x="180.684" y="-302.3" font-family="Times New Roman,serif" font-size="14.00">[root] meta.count&#45;boundary (EachMode fixup)</text>
</g>
<!-- [root] meta.count&#45;boundary (EachMode fixup)&#45;&gt;[root] aws_instance.Day1singleinstance -->
<g id="edge5" class="edge"><title>[root] meta.count&#45;boundary (EachMode fixup)&#45;&gt;[root] aws_instance.Day1singleinstance</title>
<path fill="none" stroke="black" d="M243.54,-289.116C284.115,-278.862 337.186,-265.451 380.344,-254.545"/>
<polygon fill="black" stroke="black" points="381.4,-257.888 390.238,-252.044 379.685,-251.101 381.4,-257.888"/>
</g>
<!-- [root] meta.count&#45;boundary (EachMode fixup)&#45;&gt;[root] data.aws_ip_ranges.asia&#45;ec2 -->
<g id="edge6" class="edge"><title>[root] meta.count&#45;boundary (EachMode fixup)&#45;&gt;[root] data.aws_ip_ranges.asia&#45;ec2</title>
<path fill="none" stroke="black" d="M188.1,-287.697C191.478,-279.813 195.554,-270.304 199.307,-261.546"/>
<polygon fill="black" stroke="black" points="202.631,-262.675 203.354,-252.104 196.197,-259.917 202.631,-262.675"/>
</g>
<!-- [root] provider.aws (close) -->
<g id="node10" class="node"><title>[root] provider.aws (close)</title>
<ellipse fill="none" stroke="black" cx="487.684" cy="-306" rx="108.581" ry="18"/>
<text text-anchor="middle" x="487.684" y="-302.3" font-family="Times New Roman,serif" font-size="14.00">[root] provider.aws (close)</text>
</g>
<!-- [root] provider.aws (close)&#45;&gt;[root] aws_instance.Day1singleinstance -->
<g id="edge7" class="edge"><title>[root] provider.aws (close)&#45;&gt;[root] aws_instance.Day1singleinstance</title>
<path fill="none" stroke="black" d="M480.268,-287.697C476.89,-279.813 472.814,-270.304 469.061,-261.546"/>
<polygon fill="black" stroke="black" points="472.171,-259.917 465.014,-252.104 465.737,-262.675 472.171,-259.917"/>
</g>
<!-- [root] provider.aws (close)&#45;&gt;[root] data.aws_ip_ranges.asia&#45;ec2 -->
<g id="edge8" class="edge"><title>[root] provider.aws (close)&#45;&gt;[root] data.aws_ip_ranges.asia&#45;ec2</title>
<path fill="none" stroke="black" d="M430.625,-290.581C389.385,-280.159 333.204,-265.962 287.947,-254.525"/>
<polygon fill="black" stroke="black" points="288.724,-251.111 278.171,-252.054 287.008,-257.898 288.724,-251.111"/>
</g>
<!-- [root] root -->
<g id="node11" class="node"><title>[root] root</title>
<ellipse fill="none" stroke="black" cx="333.684" cy="-378" rx="49.2915" ry="18"/>
<text text-anchor="middle" x="333.684" y="-374.3" font-family="Times New Roman,serif" font-size="14.00">[root] root</text>
</g>
<!-- [root] root&#45;&gt;[root] meta.count&#45;boundary (EachMode fixup) -->
<g id="edge12" class="edge"><title>[root] root&#45;&gt;[root] meta.count&#45;boundary (EachMode fixup)</title>
<path fill="none" stroke="black" d="M304.184,-363.503C282.162,-353.428 251.657,-339.471 226.475,-327.95"/>
<polygon fill="black" stroke="black" points="227.662,-324.644 217.113,-323.667 224.75,-331.01 227.662,-324.644"/>
</g>
<!-- [root] root&#45;&gt;[root] provider.aws (close) -->
<g id="edge13" class="edge"><title>[root] root&#45;&gt;[root] provider.aws (close)</title>
<path fill="none" stroke="black" d="M363.377,-363.503C386.029,-353.207 417.6,-338.856 443.256,-327.194"/>
<polygon fill="black" stroke="black" points="444.758,-330.356 452.414,-323.032 441.862,-323.984 444.758,-330.356"/>
</g>
</g>
</svg>
